<?xml version="1.0" encoding="utf-8"?>
<svg width="266" height="73" viewBox="0 0 266 73" fill="none" xmlns="http://www.w3.org/2000/svg">
  <path d="M 171.372 39.937 C 173.103 40.289 174.483 41.114 175.511 42.412 C 176.566 43.683 177.093 45.185 177.093 46.916 C 177.093 49.324 176.282 51.231 174.659 52.637 C 173.063 54.017 170.736 54.707 167.68 54.707 L 155.385 54.707 L 155.385 26.06 L 167.436 26.06 C 170.331 26.06 172.549 26.696 174.091 27.967 C 175.66 29.238 176.444 31.024 176.444 33.323 C 176.444 35.108 175.971 36.569 175.024 37.705 C 174.104 38.841 172.887 39.585 171.372 39.937 Z M 161.106 38.07 L 166.259 38.07 C 167.693 38.07 168.775 37.759 169.506 37.137 C 170.263 36.488 170.642 35.568 170.642 34.378 C 170.642 33.188 170.276 32.268 169.546 31.619 C 168.816 30.97 167.693 30.645 166.178 30.645 L 161.106 30.645 L 161.106 38.07 Z M 166.543 50.04 C 168.058 50.04 169.221 49.716 170.033 49.067 C 170.845 48.39 171.25 47.416 171.25 46.145 C 171.25 44.874 170.831 43.9 169.992 43.224 C 169.181 42.52 168.018 42.169 166.503 42.169 L 161.106 42.169 L 161.106 50.04 L 166.543 50.04 Z M 189.907 31.943 C 191.8 31.943 193.423 32.39 194.776 33.282 C 196.129 34.175 197.089 35.379 197.657 36.894 L 197.657 32.227 L 203.338 32.227 L 203.338 54.707 L 197.657 54.707 L 197.657 50 C 197.089 51.515 196.129 52.732 194.776 53.652 C 193.423 54.544 191.8 54.991 189.907 54.991 C 188.013 54.991 186.309 54.531 184.794 53.611 C 183.279 52.691 182.089 51.366 181.223 49.635 C 180.385 47.876 179.966 45.82 179.966 43.467 C 179.966 41.114 180.385 39.071 181.223 37.34 C 182.089 35.582 183.279 34.243 184.794 33.323 C 186.309 32.403 188.013 31.943 189.907 31.943 Z M 191.692 36.934 C 189.907 36.934 188.473 37.516 187.391 38.679 C 186.309 39.842 185.768 41.438 185.768 43.467 C 185.768 45.496 186.309 47.092 187.391 48.255 C 188.473 49.391 189.907 49.959 191.692 49.959 C 193.423 49.959 194.844 49.378 195.953 48.214 C 197.089 47.024 197.657 45.442 197.657 43.467 C 197.657 41.465 197.089 39.883 195.953 38.72 C 194.844 37.529 193.423 36.934 191.692 36.934 Z M 221.913 31.903 C 224.509 31.903 226.579 32.755 228.121 34.459 C 229.663 36.163 230.434 38.557 230.434 41.641 L 230.434 54.707 L 224.753 54.707 L 224.753 42.29 C 224.753 40.505 224.293 39.125 223.373 38.152 C 222.454 37.151 221.196 36.65 219.6 36.65 C 217.977 36.65 216.678 37.178 215.704 38.233 C 214.731 39.288 214.244 40.803 214.244 42.777 L 214.244 54.707 L 208.522 54.707 L 208.522 32.227 L 214.244 32.227 L 214.244 36.731 C 214.839 35.217 215.813 34.04 217.165 33.201 C 218.545 32.336 220.127 31.903 221.913 31.903 Z M 248.614 54.707 L 241.189 44.887 L 241.189 54.707 L 235.468 54.707 L 235.468 24.68 L 241.189 24.68 L 241.189 41.56 L 248.574 32.227 L 255.35 32.227 L 245.896 43.426 L 255.593 54.707 L 248.614 54.707 Z" fill="#5CE1E6"/>
  <path d="M36.0678 0C28.9343 -8.50666e-08 21.9609 2.11534 16.0296 6.07852C10.0983 10.0417 5.47539 15.6747 2.7455 22.2652C0.0156126 28.8558 -0.698651 36.1078 0.693031 43.1043C2.08471 50.1007 5.51984 56.5274 10.564 61.5716C15.6082 66.6157 22.0348 70.0509 29.0313 71.4426C36.0278 72.8342 43.2798 72.12 49.8703 69.3901C56.4609 66.6602 62.0939 62.0373 66.0571 56.106C70.0202 50.1747 72.1356 43.2013 72.1356 36.0678L54.1017 36.0678C54.1017 39.6346 53.044 43.1212 51.0624 46.0869C49.0808 49.0526 46.2643 51.364 42.9691 52.7289C39.6738 54.0939 36.0478 54.451 32.5496 53.7552C29.0513 53.0593 25.838 51.3418 23.3159 48.8197C20.7938 46.2976 19.0763 43.0843 18.3804 39.586C17.6846 36.0878 18.0417 32.4618 19.4066 29.1665C20.7716 25.8713 23.083 23.0547 26.0487 21.0732C29.0144 19.0916 32.501 18.0339 36.0678 18.0339L36.0678 0Z" fill="white"/>
  <path d="M36.0678 0C31.3313 -5.64821e-08 26.6412 0.932921 22.2652 2.7455C17.8893 4.55807 13.9132 7.21481 10.564 10.564C7.21481 13.9132 4.55807 17.8893 2.7455 22.2653C0.93292 26.6412 -7.1519e-07 31.3313 0 36.0678L18.0339 36.0678C18.0339 33.6996 18.5004 31.3545 19.4066 29.1665C20.3129 26.9785 21.6413 24.9905 23.3159 23.3159C24.9905 21.6413 26.9785 20.3129 29.1665 19.4066C31.3545 18.5004 33.6995 18.0339 36.0678 18.0339L36.0678 0Z" fill="#5CE1E6"/>
  <circle cx="36.0678" cy="36.0678" r="11.2712" fill="#5CE1E6"/>
  <path d="M47.339 36.0678C47.339 34.5877 47.0475 33.122 46.481 31.7545C45.9146 30.387 45.0844 29.1445 44.0377 28.0979C42.9911 27.0513 41.7486 26.221 40.3811 25.6546C39.0136 25.0882 37.548 24.7966 36.0678 24.7966C34.5876 24.7966 33.122 25.0882 31.7545 25.6546C30.387 26.221 29.1445 27.0513 28.0979 28.0979C27.0512 29.1445 26.221 30.387 25.6546 31.7545C25.0882 33.122 24.7966 34.5877 24.7966 36.0678L36.0678 36.0678H47.339Z" fill="white"/>
  <text style="fill: rgb(255, 255, 255); font-family: Arial, sans-serif; font-size: 36px; font-weight: 700; letter-spacing: 2.4px; text-transform: uppercase; word-spacing: 41.9px; white-space: pre;" transform="matrix(1.219048, 0, 0, 1.070121, -7.71402, -2.549433)" x="69.912" y="54.386">MY</text>
</svg>